<svg xmlns="http://www.w3.org/2000/svg" viewBox="0 0 6062 4550"><path d="M3294.4 1944c-2.1.8-8.1 9.1-10.5 14.4-1.1 2.4-1.7 2.7-4.5 2.1-3.6-.6-3.9-.3-14.9 19.7-5 9.1-7.5 11.6-5.1 5 .8-2 1.7-5 2.1-6.5 1.1-5.2-3.4-7.6-7-3.7-2.5 2.7-3.7 2.5-5.7-1-4.4-7.7-11.3-.8-19.1 19-4.9 12.5-11.6 31.6-16.2 46.5-2.5 8.2-6.6 21.1-9.1 28.5-2.4 7.5-7.7 24.6-11.8 38-7.1 23.4-23 70.7-28 83.5-1.3 3.3-5.8 15.9-9.9 28-8.1 23.9-10.4 29.5-12.3 29.5-.6 0-3.3-5.5-6-12.2-9.5-24.1-21.4-39.9-50.5-67.4-37.4-35.4-87.8-45.8-138.2-28.5-27 9.3-50.5 23.8-70.2 43.6-6.7 6.6-13.6 14.1-15.5 16.7-1.8 2.7-3.6 4.8-3.9 4.8-.4 0-5.3-5.9-11-13-22.2-27.7-40.8-42-66.1-50.4-28.2-9.4-54.4-8.8-87 2.1-30.4 10.1-54.1 24.7-78.9 48.6-21.5 20.6-35.5 39.9-49.4 67.9-8.1 16.4-13 29.5-17.1 45.8-1.7 6.9-3.5 13-3.9 13.7-.7 1.1-10.6 3.7-11.4 2.9-1-.9 5.9-24.9 32.8-114.6 21-69.8 33.6-110.1 45-144.2 3.8-11.4 6.9-21.2 6.9-21.7 0-1.3-7.9-10.7-25.8-30.9-17.6-19.8-15.7-18.9-32-15.3-4.8 1.1-14.5 3.2-21.7 4.6-13.9 2.9-89.7 19.6-98 21.7l-5 1.3-8.2 16.5c-12 24.1-12.6 26.9-3.8 16.2 2.6-3.1 4.5-5 4.2-4.2-8.6 23.2-35.9 112.4-46.2 151-1.3 4.7-4.9 17.3-8 28s-9.4 33.2-14 50c-11.3 41.9-23.4 85.1-24.4 87.5-.7 1.6-2.5 2.3-8.2 3.3-7.1 1.2-14 3-30.7 7.9-7.3 2.2-10.5 4.3-9 5.9.7.6 9.5-1.5 28.6-7.1 9-2.6 16.5-4.5 16.7-4.3s-.4 3.5-1.3 7.3c-1.7 6.9-1.7 6.9-5.7 7.7-10.7 2.1-57 17-64.3 20.7-4.7 2.4-5.1 2.8-3.9 4.5 1 1.4 2.1 1.6 5 1.1 2-.4 3.5-1 3.3-1.4-.2-.3 1.4-.5 3.5-.3 2.6.3 4.6-.1 5.7-1.1 2-1.8 14.2-4.9 14.2-3.6 0 .5 1 .9 2.3 1 3 .1-12.1 4.9-15.6 4.9-1.6 0-2.6.4-2.3.9.6 1-2.4 2.5-3.2 1.6-.3-.3.1-.5.8-.5s1.1-.2.8-.5c-.8-.8-3.9.6-3.3 1.5.2.4-1.7 1.3-4.3 2s-7.9 2.3-11.8 3.6c-3.8 1.3-7.9 2.1-9 1.8s-5.8 1-10.5 2.9c-4.6 2-11.1 4.3-14.4 5.2-7.4 2.1-7.5 2.2-6.9 4 .3.8 2 1.5 3.7 1.7 4.4.4 4.7 3.1.5 4.5-1.8.6-8.7 2.8-15.3 4.8s-13.8 4.5-16 5.5c-7.5 3.4-12.4 11.2-6 9.6 1.2-.3 7-1.2 13-2.1 5.9-.8 14.6-2.4 19.4-3.5 29.4-6.9 39.2-9 42.2-9 2.8 0 22.9-4.8 50.4-12.1 2.2-.5 4.2-1.5 4.6-2 .3-.5 1.3-.7 2.2-.3 2.8 1 1 2.2-6.8 4.5-4.1 1.2-7.2 2.6-6.9 3 .2.4-.4.7-1.3.6-1.9-.1-7.7 3.3-6.9 4 .3.3 3.2.2 6.5-.2 6.8-.8 7-.8 7.4.1.1.4-2 1.4-4.8 2.4-2.7.9-6.1 2.1-7.5 2.7l-2.5 1.1 2.6 1.2c2.2 1 4 .9 9.7-.4 8.7-2 14.2-2.1 14.2-.3 0 2.6-2.7 4.4-11 7.2-18 6.1-23.4 8.2-23.8 9.3-.7 2.3 4.1 1.1 24.9-5.9 7.7-2.6 7.8-2.6 6.6 2.4-.9 4.1-1.2 4.4-5.6 5.6-2.5.6-7.3 2.5-10.6 4.1-3.3 1.7-10.7 4.9-16.5 7.3-6.5 2.6-10.6 4.8-10.8 5.8-.6 3.2 4 2.9 15.7-1 6.4-2.1 13.9-4.4 16.6-5.1 2.8-.7 5.8-1.5 6.8-1.7 1.4-.5 1.6-.2.8 1.8-.6 1.6-1.5 2.3-2.8 2.1-3.5-.5-23.5 5.5-24.3 7.3-.9 1.8 5.6 1.6 13.5-.4 9.2-2.5 12.5-2.6 12.5-.7 0 2.6-3.4 5.3-10.3 8.1-3.7 1.5-7 3.2-7.3 3.7-1.2 1.9.8 2.1 6 .5 6.1-1.9 7.6-2.1 7.6-.7 0 1.3-4.3 3.4-15.7 7.6-5.4 1.9-13.9 5.1-18.9 6.9-27.1 9.9-42.4 16.5-42.4 18.2 0 1.9 1.9 1.6 9.5-1.2l6.8-2.6 2.2 2.1c1.1 1.1 2.6 2 3.1 2 1.9 0 19.1-5.9 32.9-11.3 7.7-3 15.5-5.8 17.4-6.2l3.4-.7-.7 4.8c-.3 2.7-2.5 12.5-4.7 21.8-4.8 19.9-5 18.9 5.2 30.2 16 17.7 35.4 37.4 37 37.4.9 0 3.4-.7 5.5-1.6 6.9-2.9 25.9-9.3 26.3-8.8.3.2-.1 1-.7 1.6-1.4 1.4-1.6 5.8-.3 5.8.6 0 8.7-3.6 18.2-8 9.4-4.5 17.3-7.9 17.5-7.7s-.7 1.4-2.1 2.7c-2.7 2.5-3.2 4-1.4 4 .6 0 6.9-2.7 13.8-6 7-3.3 13.1-6 13.5-6s.5.7.2 1.5c-1 2.7 1.9 2.7 10.1.2 19.7-6.3 53.8-13.9 116.8-26.3 9.9-2 25.7-5.1 35-6.9 9.4-1.8 22.4-4.3 29-5.6 6.6-1.2 12.7-2.7 13.5-3.5.9-.7 3.5-5.4 6-10.3 2.4-5 4.9-9.1 5.5-9.1s4.9 1.6 9.5 3.4c4.7 1.9 14.4 4.7 21.5 6.2 23.8 4.8 48.6 3.3 72-4.4 11.1-3.7 36.9-16.9 46.7-23.9 12.6-9 29.2-23.7 35.5-31.3 3.1-3.9 6.2-7 6.7-7 .6 0 2.3 2.2 3.7 4.8 7.6 13.8 24.9 32.4 38.1 40.9 20.3 13.1 47.7 20.6 75.8 20.6 22 0 36.4-2.9 56.9-11.4 21.4-8.9 37.8-20.3 56.5-39.2 7.1-7.2 12.7-12.2 12.3-11.2-.3 1.1-2 5.6-3.7 10-3.1 7.9-7.4 19.5-13.1 35-3.4 9.3-6.1 21.8-5.2 24.3.3.9 1.4 2.5 2.5 3.5 1 1 1.8 2.6 1.8 3.7 0 1 1.2 2.8 2.7 3.9 3 2.4 5 2.1 10.4-1.5 5.2-3.6 6.1-3.1 3.9 2.1-2.5 5.9-4.3 16-3.5 20.1.7 4 5 7.4 9.3 7.4 1.6 0 4.5-1.1 6.5-2.4 6.7-4.6 7.4-4.8 11.7-3.5 2.2.7 4 1.7 4 2.3 0 .5-1.3 2.4-2.9 4.1-6.8 7-7 11.4-.7 13.5 4.4 1.4 5.7 1.1 27.6-7.7 64.9-26.1 143.5-49.1 220-64.2 37-7.4 39-7.8 41.1-9.7 1.3-1.2 2.8-1.3 8-.5 8 1.2 23.6 1.7 24.5.8.4-.4 2.6-.7 4.8-.7 3.8 0 13.9-2 17.9-3.5.9-.4 1.7-.3 1.7.3 0 1.3-9.9 5.5-18.4 7.7-9.6 2.6-6 3.6 9 2.5 36.9-2.6 72.2-17.1 106.9-43.9 10.9-8.4 26.5-22.9 26.5-24.7 0-1.9-.8-1.8-6 1.2-2.5 1.5-5.6 2.8-7 3-1.4.1-3.5.6-4.7.9-3.7 1.2-2.6-.7 2.9-5 2.8-2.2 10.9-9.7 17.8-16.8 7-7 13.2-12.7 13.8-12.7s1.3 1.3 1.7 2.9c1.9 8.8 11.4 27.3 19.7 38.6 21.7 29.4 64.8 49.5 105.9 49.5 12 0 19.6-1.1 32.9-4.5 18.2-4.7 27.6-8.8 48-20.8 17.2-10.2 40.5-29.8 57.1-48.1 6.5-7.2 11.9-13.4 11.9-13.8 0-1.2-2.8-1-3.5.2-.9 1.5-23.8 20.5-31 25.7-20.4 14.9-36.5 24.8-42.4 25.9-2.6.5-3.1.3-3.1-1.2 0-1.3 3.3-4.1 10.7-8.9 5.9-3.9 14.3-9.6 18.7-12.9 13.8-10.3 34-30 40.3-39.5 2.1-3.1 6.7-9 10.3-13.1 6.4-7.2 18-21.9 22.9-28.8s1-5.2-9.3 4.2c-5.9 5.4-11 9.6-11.3 9.2-.3-.3 2.5-4.7 6.4-9.8 13.3-17.7 17-23.7 15.6-25.2-.9-.9-4.2 1.2-12.3 7.8-24 19.6-46.9 35.4-69.3 47.9-8 4.5-26.7 11.8-36.6 14.3-16.7 4.3-34 3-47-3.3-15.3-7.4-28.1-29.1-28.1-47.6 0-5.8 0-5.8 2.8-5.6 1.5.1 3.4-.1 4.2-.4s6.5-1.3 12.5-2.2c15.4-2.3 34.1-6.7 46.4-10.9 11.4-3.9 13-4.3 8.9-2.1-13.9 7.6-42.5 15.6-61.1 17.1-8.6.8-9.2 2.4-1 3.1 11.7 1 33.7-2.8 53.8-9.3 61.2-19.8 103.3-52.1 124.4-95.3 7.2-14.8 9.1-21.9 9.1-34.2 0-5.9-.4-11-.9-11.3-1.2-.8-2.8 1.4-3.6 4.9-1.8 7.6-7.7 24-11.3 31.2-6.4 12.6-20 30.3-23.3 30.3-.9 0-.9-.3.3-1.3 2.3-1.8 10.2-13.5 13.3-19.6 1.4-2.9 4.2-9.5 6.1-14.5s4.1-10 4.8-11.1c1.4-2.1 3-12.8 2-13.7-.3-.3-1.7-.2-3.2.3s-4.6 1.4-6.9 1.9c-3.4.9-4.3 1.5-4.3 3.3 0 3.3-1.5 4.9-4.1 4.5-1.9-.2-2.5-1-2.7-3.6-.2-2.4.1-3.2 1.2-3.2.9 0 2.4-.9 3.3-2 1-1.1 2.9-2 4.2-2 2.4 0 2.4-.1.5-1.4-1.8-1.4-1.8-1.5-.1-2.1.9-.4 1.7-1.6 1.7-2.7 0-1.5.3-1.8 1.3-1 .6.5 3.1 1 5.5.9 5.1 0 6.7-1.8 7.7-9 .4-2.6 1.1-4.7 1.6-4.7s.3-1-.5-2.3c-.7-1.2-1.7-4.9-2-8.2-.4-3.3-1.3-8.2-2.1-10.9-2.3-7.5-1-6.7 2.9 1.8 3.1 6.9 5.6 9.7 5.6 6.3 0-2.7-6-13.7-8.3-15.2-1.4-.9-4.7-4.8-7.4-8.8-9-13.3-20.9-23.5-34.9-29.8-7.2-3.3-17.2-6.1-18.5-5.3-1.1.6 1.5 3.4 3.1 3.4.6 0 4.5 1.6 8.8 3.7 5.6 2.6 9.5 5.4 14.3 10.2 6.4 6.5 11.7 13.7 7.3 10-3.6-3-27.9-16.8-32.9-18.7-9-3.5-31.2-7.2-42.5-7.2-4.1.1-10.9.7-15 1.6-4.1.8-8.5 1.4-9.8 1.4-2.5 0-10 2.2-24.7 7.2-17.1 5.8-43.2 20.9-59 34.1-18.9 15.9-39.2 39.8-54 63.8-20.5 33.1-33.8 73.3-35.2 106.7-.6 13.2-.6 13.2-3.5 15.5-1.7 1.2-3.5 2.6-4.1 3.2-11.1 9.4-23.1 18.2-42.7 31.3-14.7 9.8-44.1 22.6-59.3 25.8-8.8 1.8-21.5 1.8-29.5-.1-22-5.2-37-23.1-41.3-49.4-1.4-8.4-.9-10.1 3-10.1 4.2 0 6.1.9 6.1 3.1 0 1.7.8 1.9 7.8 1.9 14.1 0 34.4-4.5 54.2-12 42.3-15.9 72.4-36 93.2-62 8.6-10.8 18.6-29.9 24.4-46.5 3.7-10.5 3.9-11.6 3.8-23 0-14.4-1.7-21.3-8.1-33.8-2.5-4.8-4.2-9.1-3.9-9.4.4-.4 5.7-2 11.9-3.5 6.1-1.6 11.4-3.3 11.5-3.8.2-.6 1.6-1 3-1 1.5 0 4-.7 5.6-1.5 1.5-.8 3.2-1.2 3.7-.9s.9-.4.9-1.6c0-2-.4-2.1-4.7-1.5-2.7.4-7.8 1.5-11.4 2.6-3.9 1.1-7.9 1.6-9.7 1.3-1.6-.3-4 0-5.3.7-3.5 1.9-12.5 2.1-13.9.4-1-1.2-.9-1.6.1-1.8.8-.2 4.5-1.4 8.2-2.6s7.3-1.9 7.9-1.5.8.3.5-.3c-.9-1.4 4.5-3.3 9.4-3.3 2 0 9.2-1.6 15.9-3.5 7-2.1 13-3.3 14.2-2.9 1.5.4 1.8.3 1.3-.7-.6-.9-.2-1.1 1.3-.7 1.2.4 2.2.2 2.2-.3 0-.4.7-.6 1.5-.3.8.4 2.1.1 2.9-.5.7-.6 2.2-.8 3.1-.4 1.3.5 1.6.3 1-.6-.6-1-.2-1.1 1.5-.6 1.4.5 2 .3 1.6-.3-.3-.6.7-1.3 2.4-1.7 2.5-.5 3-1.1 2.5-2.6-.9-2.6 2.4-3.8 4.1-1.5.9 1.3 1.7 1.5 3.1.8 1-.5 3.5-1.2 5.6-1.6 3.1-.6 3.6-1 2.7-2.1-.7-.8-.7-1.5-.1-1.9 2.2-1.4 22.9-8.1 22.4-7.3-.3.5.9.2 2.5-.7 1.7-.9 4-1.6 5.2-1.6 1.1 0 3.1-.6 4.3-1.4s5.6-2.2 9.7-3.1c21.8-5.1 55.3-16.2 55.7-18.6.4-2-.8-3.5-3.6-4.4-1.7-.5-2.2-.4-1.6.5s-.3 1.1-3.6.6c-3.3-.4-3.9-.3-2.4.4 1.5.8.9.9-2.5.5s-4.1-.3-3 .6c1.2.9 1 1-.9.6-1.2-.3-3.3-.2-4.5.3-4.9 1.9-6.2 2.3-7.3 2.1-.7-.1-1.3.2-1.3.6s-1.4.9-3.2.9c-1.8.1-3.4.6-3.6 1.2-.1.5-1.2.8-2.2.5-1.2-.3-2 0-2 .6 0 .7-.4 1-.9.7-.5-.4-4.1.1-8.1.9-3.9.8-9 1.5-11.3 1.5-8 0-31.4 4.8-57.7 12-29.6 8-73.3 19-73.8 18.6-.9-.9 1.2-2.9 4.7-4.3 2-.9 3.1-1.8 2.4-2s-2 0-3 .6c-1.1.5-3.8.7-6.1.4-3-.4-4.7-.1-6 .9-2.1 1.9-8.8 5.3-12.2 6.2l-2.5.7 2.5-1.6c1.7-1.1 1.9-1.4.5-.9-4.6 1.5-6.4 1.5-10.1-.4-7.5-3.8-22.2-9.1-31.2-11.3-6.9-1.6-9.3-2.6-9.7-4-1-3-7.7-4.2-22-3.7-24.4.9-47.2 8.6-74.9 25.5-9.5 5.8-26.2 18.4-36 27-3.6 3.3-6.8 5.3-8.2 5.3-1.3 0-2.4.3-2.4.7 0 .5-1.9.9-4.3 1-2.3.1-14.1 3-26.2 6.4-31.1 8.7-42.3 11.4-43.2 10.5-.4-.4.4-4.2 1.9-8.4 2.9-8.4 19.6-52.2 28.5-74.7 16.9-42.9 25.3-65.7 25.3-69.1 0-3.2-1.4-3-3.8.3-2.9 4.3-27.2 54.1-34 69.8-6.3 14.7-17.3 37.7-17.8 37.2-.2-.2 1-3.7 2.7-7.8 1.7-4 3.2-8.1 3.4-8.9.4-2.2 4.4-14.2 5.5-16.5.5-1.1 1.6-4.3 2.5-7.2.9-2.8 2.5-6.3 3.6-7.7s1.7-3 1.4-3.6c-1.5-2.4 20.4-57.2 38.8-97.4 5-11 9-20.6 9-21.5-.1-.9-1.1-3.7-2.2-6.4-1.7-3.9-2.6-4.9-5.2-5.4-2.5-.5-3-.9-2.5-2.7 1.8-6 1.7-7.2-.6-10.6-1.3-1.9-3.6-3.9-5.1-4.4-2.5-.9-3.2-.5-8 4.2-5.3 5.2-8.6 6.8-7.2 3.4.4-.9 1.6-4.7 2.7-8.4 2.2-7.8 1.3-13.6-2.5-16.3-5.7-4-7.2-2.4-20 19.8-4.7 8.2-8.8 14.4-9.1 13.8-.3-.5 1.2-6.7 3.5-13.8 4.3-13.8 4.5-17.7.8-21.4-2.1-2.1-2.4-2.2-5.5-.9m-723.4 69.7c0 .5-2 6.9-4.4 14.3s-7.6 24.3-11.6 37.5c-3.9 13.2-8 26.7-9.1 30-1 3.3-3.2 10.5-4.8 16s-6.5 22.4-10.9 37.5c-16 54.9-30.9 109.5-44.6 163.4-4.8 19.2-5.5 21.1-7.7 21.7-1.3.4-15.4 4-31.2 8-28.7 7.3-38.3 10.7-26.7 9.5 3-.4 16.7-3.3 30.5-6.6 13.7-3.3 25.7-6 26.7-6 2.2 0 2.2 1.2.3 7.7l-1.5 5.1-7.8 1.7c-12.1 2.6-53 12.9-81.5 20.5-6.6 1.7-12.1 2.9-12.4 2.6-.3-.2 3.9-17.7 9.2-38.8 12.8-50.8 16.8-69.4 13.6-63.8-1.4 2.4-19.5 64-24.6 83.5-2.6 9.9-4.9 18.7-5.1 19.7-.3.9-1.7 1.9-3.2 2.2-1.5.4-3.5.9-4.6 1.3-1.6.4-1.8.1-1.3-2.3.6-3.6 9.9-38.6 13.7-51.9 1.6-5.5 5.4-19.7 8.5-31.5 6.1-23.4 36.3-132.5 42.5-153.5 2.1-7.2 6.7-22.7 10.3-34.5 5.7-18.9 11.3-38.6 17.5-61.5l1.9-7 12.7-2.9c7-1.5 12.9-2.6 13.1-2.4.3.2-.2 4.4-1.1 9.2-2.6 15.1-1.5 15.6 4 2.1 2.7-6.6 5.3-12.4 5.8-13 1.5-1.7 34.3-9.5 34.6-8.2.1.7-1.3 7.5-3.3 15.1-3 12.2-3.6 16.1-2.1 14.5.2-.2 3.8-7.4 8-15.9s8-15.8 8.4-16.2c.9-.9 20.3-5 20.9-4.4.2.2-3.1 11.8-7.3 25.7-24.2 79.7-22.9 80.3 5.3 2.4 9.7-26.7 11.2-30 13.3-30.6 3.5-1 6-1 6-.2m667 30.7c0 .3-.4.8-1 1.1-.5.3-1 .1-1-.4 0-.6.5-1.1 1-1.1.6 0 1 .2 1 .4m55 5c0 .3-.4.8-1 1.1-.5.3-1 .1-1-.4 0-.6.5-1.1 1-1.1.6 0 1 .2 1 .4m-51 42c0 .3-.4.8-1 1.1-.5.3-1 .1-1-.4 0-.6.5-1.1 1-1.1.6 0 1 .2 1 .4m22.1 10.9c-1.3 1.3-3.1 0-2.4-1.9.4-1.1.8-1.2 2-.3.9.8 1 1.6.4 2.2m6.9 4.2c0 .8-.7 1.5-1.5 1.5s-1.5-.7-1.5-1.5.7-1.5 1.5-1.5 1.5.7 1.5 1.5m6 1.5c0 .5-.4 1-1 1-.5 0-1-.5-1-1 0-.6.5-1 1-1 .6 0 1 .4 1 1m-24 2c0 .5-.4 1-1 1-.5 0-1-.5-1-1 0-.6.5-1 1-1 .6 0 1 .4 1 1m4.8 3.5c-1.7 1.6-6.8 2.8-6.8 1.6s2.1-2.8 4.5-3.3c2.8-.6 3.9.2 2.3 1.7m-26.8 2.3c0 1.3-1.2 2.2-2.2 1.6s-.1-2.4 1.3-2.4c.5 0 .9.4.9.8m37 1.1c0 1.4-1.2 2-2.6 1.4-2.2-.8-1.7-3.2.6-2.6 1.1.3 2 .9 2 1.2m-76.5 21.6c-4.8 16.6-8 26.8-9.6 29.7-.5 1-1.3 3.4-1.8 5.5-1.8 7.3-4.9 16.8-7 21.3l-2 4.5.6-4.5c.3-2.5 2.3-9.5 4.3-15.5 2-6.1 4.5-14.2 5.4-18 2-7.6 10.7-34.5 12.8-39.1 2.8-6.2 1.7.9-2.7 16.1m37.5-15c0 .8-.7 1.5-1.5 1.5-2.6 0-1.8-2 1.3-2.9.1-.1.2.6.2 1.4m-18.7 3.4c-.3 1.1-1.2 2.2-2 2.6-1.3.4-1.4.3-.4-.9.7-.8 1-2 .6-2.6-.3-.5 0-1 .8-1 1 0 1.3.7 1 1.9m276.7 10c0 .8-3.5 1.9-20.5 6.1-11.3 2.7-20.1 5.9-30 10.8-.5.3.1-.7 1.5-2.2 5.4-6 25.5-13.5 37.9-14.2 4.1-.2 7.6-.6 7.9-.9.9-.8 3.2-.6 3.2.4m-11.3 11.8c-.9.9-1.9 1.4-2.3 1.1-1-1 .6-2.8 2.4-2.8 1.5 0 1.5.1-.1 1.7m-453.2 2.2c39.3 9.9 64.4 34.1 77 74.6 3.8 12 7 28.5 5.8 29.6-1.5 1.3-7.7 2.9-8.3 2.2-.4-.5-1.2-4.5-1.8-9.1-1.5-11-7.1-27.4-12.9-37.9-4.4-7.9-18.1-24.3-20.4-24.3-.5 0 2.2 4 5.9 8.9 8.3 10.9 15.1 23.6 19.1 35.6 3.4 10.2 6.7 27.4 5.4 28.5-.4.4-7.8 2.4-16.3 4.4s-24.7 6.3-36 9.5l-20.5 5.9-.6-11.2c-.7-12.9-3.7-22.9-9.4-31.1-1.9-2.8-3.5-5.5-3.5-5.9 0-1.1 4.2 1.4 9.3 5.6 5.3 4.4 5.9 4.1 2.1-1.4-5.1-7.3-16.1-13.4-26.3-14.4-16.3-1.7-35.3 10.6-49.6 32-7.1 10.7-15.6 28.5-19.6 41.1-1.7 5.5-3.3 10.1-3.4 10.3-.1.1-5.5 1.6-12.1 3.2-6.5 1.7-24.9 6.5-40.7 10.6-15.9 4.2-29.1 7.4-29.3 7.1-.6-.6 4.8-24.6 7.6-33.7 2.7-8.9 2.4-11.7-.5-5.2-3.5 7.6-9 25.5-10.5 33.7-1.4 7.4-2.1 8.5-5.7 8.5-2.9 0-2.9-.2.6-16.4 3.4-15.4 7.5-28.1 12.6-39.4l3.6-7.9 16.2-5.2c8.9-2.9 24.1-8.3 33.7-12.1 9.6-3.7 18.5-7.1 19.8-7.5s2.2-.9 2-1.1c-.3-.2-8.5 1.7-18.4 4.2-41.2 10.6-47.9 12.2-48.8 11.4-1.4-1.3 11-22.9 21-36.6 26.4-36.1 68.9-63.2 106.9-68.3 11.4-1.6 36.7-.6 46 1.8m725.5-.9c0 .5-.2 1-.4 1-.3 0-.8-.5-1.1-1-.3-.6-.1-1 .4-1 .6 0 1.1.4 1.1 1m-982 4c33.6 8.3 54.3 26.4 63.3 55.5 4.5 14.7 4.3 27.9-.6 43.8l-2.2 7-6.5 1.8c-3.6 1.1-13.7 3.7-22.5 5.9-21.1 5.4-46.9 12.5-52.4 14.4-6.9 2.5-7.6 2-3.8-2.4 1.9-2.2 5.1-8 7.2-12.8 3-6.9 3.9-10.3 4.2-16.8.5-7.2.3-8.5-2-13.1-1.4-2.7-3.8-6.5-5.4-8.3l-2.8-3.3 3.5.7c1.9.3 5.2 1.8 7.3 3.2s4.1 2.3 4.4 2.1c.2-.3-1.2-2.3-3.2-4.5-12.4-13.8-35.7-11.1-54.2 6.2-12.8 11.9-21.5 25.1-31.3 47.3-3.9 8.8-5.9 12.3-7.4 12.8-1.2.3-13.8 3.2-28.1 6.5s-30.9 7.3-37 8.9c-6 1.7-12.2 3-13.8 3.1-2.5 0-2.7-.3-2.1-2.8 2.3-10.6 5.8-22.2 8.8-29.7 2-4.9 3.4-9 3.2-9.3-.7-.6-5.5 7.5-8.7 14.5-1.6 3.5-4.5 11.6-6.5 17.9-3.8 12.2-4.8 13.4-11 13.4-1.9 0-2.4-.4-2-1.8.3-.9 1.2-4.5 2.1-8 4.2-16.7 14.2-40.5 23.1-55 8-13 23.8-33.5 33.1-42.9 8.8-9 24.4-21.9 35.1-29.1 20-13.6 41.6-22.2 69.2-27.6 6.1-1.2 30.7.3 39 2.4m885-2c0 .5-.8 1-1.7 1-1.5 0-1.6-.2-.3-1 1.9-1.2 2-1.2 2 0m-156.5 1.6c0 .5-1 1-2.3 1.2-1.7.3-2.1.8-1.7 2.2.4 1.1-.1 2-1.1 2.4-2.3.9-3 0-1.4-1.9 1.8-2.2-.7-2-3.2.2-1 .9-2.1 1.3-2.4 1-1-1 .4-3.7 2.3-4.3 1-.3 2.5-.9 3.3-1.4 1.9-1 6.5-.6 6.5.6m327.5 1.9c-.7.8-2.2 1.4-3.4 1.4-2-.1-2-.2-.1-.6 1.1-.3 2.4-.9 3-1.4 1.5-1.4 1.9-1 .5.6m-322.8 3.7c-.8.8-.8 1.7 0 3.1.7 1.4.7 2.2-.3 2.7-2.1 1.4-4 0-3.3-2.4.8-2.5 3.5-5.8 4.2-5.1.3.3.1 1-.6 1.7m322.8-.2c0 .5-.5 1-1.1 1-.5 0-.7-.5-.4-1 .3-.6.8-1 1.1-1 .2 0 .4.4.4 1m-69 2.5c1.6 2 .5 4.5-2 4.5-1.1 0-2.9.6-4 1.2-1.5 1-2.2 1-3.2 0-.9-.9-.5-1.3 2-1.8 3.3-.7 4-1.8 2.1-3-.8-.4-.7-.9.2-1.5 2-1.3 3.5-1.1 4.9.6m-287.5 4.5c-.3.5-1.5 1-2.6 1-1 0-1.9-.5-1.9-1 0-.6 1.2-1 2.6-1s2.3.4 1.9 1m371.9.8c1.6.9-3.9 4.2-7.1 4.2-1.7 0-3.5.4-3.8 1-.3.5-1.5 1-2.6 1-1 0-1.9.4-1.9 1 0 1.9-2.8 1-3.3-1-.3-1.2 0-2 .8-2 .7 0 2.4-.9 3.8-2s3.9-2.2 5.7-2.4c1.7-.2 3.3-.6 3.6-.9.6-.5 2.8 0 4.8 1.1m-355.7 2.3c-.8 1.3-1.9 1.8-3.2 1.5-1.1-.3-2.7-.6-3.5-.6s.3-.9 2.5-1.9c4.6-2.1 6-1.8 4.2 1m323.3.5c0 .2-.7.4-1.5.4s-1.5-.4-1.5-1c0-.5.7-.7 1.5-.4.8.4 1.5.8 1.5 1m-9 3.4c0 .5-.7 1-1.5 1s-1.5-.5-1.5-1c0-.6.7-1 1.5-1s1.5.4 1.5 1m45 1c0 .5-.4 1-1 1-.5 0-1-.5-1-1 0-.6.5-1 1-1 .6 0 1 .4 1 1m3 1.4c0 .2-.7.7-1.6 1-.8.3-1.2.2-.9-.4.6-1 2.5-1.4 2.5-.6m-35 4.9c1.4 2.6 1.4 2.9-.5 4.3-2 1.5-2 1.6-.1 2.9 1.7 1.3 1.7 1.5.3 2-1.6.7-6.3-1.3-5.3-2.2.3-.3-.1-1.5-.9-2.7-1.9-2.6-1.9-4.1.1-6.1 2.2-2.2 4.5-1.5 6.4 1.8m43.2-.1c-.9.9-1.5.9-2.4 0-1-1-1-1.5.2-2.2 2-1.2 3.8.6 2.2 2.2m-53.2.3c1.5 1.8.5 3.5-2.1 3.5-1.2 0-1.9-.7-1.9-1.8 0-3.3 2-4.2 4-1.7m32 1.6c0 .5-.4.9-1 .9-.5 0-1-.7-1-1.6 0-.8.5-1.2 1-.9.6.3 1 1 1 1.6m3-1.1c0 .5-.2 1-.4 1-.3 0-.8-.5-1.1-1-.3-.6-.1-1 .4-1 .6 0 1.1.4 1.1 1m-11 1.5c1.1 1.3 1 1.4-.2 1-.9-.4-1.8 0-2.1.9-.7 1.8-5.8.7-6.5-1.3-.3-1 .2-1.2 1.9-.8 1.3.3 3.1.2 3.9-.3l1.6-1c.1 0 .7.7 1.4 1.5m-536.4 3.1c-.4.9-.9 1.5-1.1 1.2-.3-.3-.3-1.3.1-2.2s.9-1.5 1.1-1.2c.3.3.3 1.3-.1 2.2m541.4-1.6c0 .5-.2 1-.4 1-.3 0-.8-.5-1.1-1-.3-.6-.1-1 .4-1 .6 0 1.1.4 1.1 1m20 4.6c0 .2-1.2.4-2.6.4s-2.3-.4-2-.9c.6-.8 4.6-.4 4.6.5m-14.7 2.1c2.1.4 2.6 1 2.2 2.4-.4 1.3-.1 1.9.9 1.9 2.2 0 2 1.7-.3 3-1.4.7-2.2.7-2.6 0-.4-.6-2.4-1-4.6-.8-2.5.1-4.5-.4-5.5-1.3-1.3-1.4-1.2-1.8.7-4.3 1.6-2 2.7-2.6 4.3-2.2 1.1.4 3.3.9 4.9 1.3m-63.1 2.5c-.7.7-1.2.8-1.2.2 0-1.4 1.2-2.6 1.9-1.9.2.3-.1 1.1-.7 1.7m92 .5c2.4 2.1 2.3 4.3-.2 4.3-1.1 0-2-.6-2-1.4s-.3-2.1-.6-3c-.8-2.1.5-2 2.8.1m-500.2 1.2c0 .5-1.9 2.6-4.2 4.8-3.3 2.9-5.7 4.2-10.3 5.2-7.9 1.6-37.7 9.4-53.3 13.8-6.8 1.9-12.6 3.3-12.9 3-.9-.9.8-4.7 2.5-5.6 1-.5 11.8-3.7 24.2-7.1s27.2-7.5 33-9.2c21.9-6.4 21-6.2 21-4.9m202.6 1.6c-1 .8-2.4 1.1-2.9.8-.6-.4-.2-1 .9-1.4 3.1-1.2 4-.9 2 .6m192.4-.1c0 .3-.4.8-1 1.1-.5.3-1 .1-1-.4 0-.6.5-1.1 1-1.1.6 0 1 .2 1 .4m114 .6c0 .5-.4 1-1 1-.5 0-1-.5-1-1 0-.6.5-1 1-1 .6 0 1 .4 1 1m-131 1c0 .5-.4 1-1 1-.5 0-1-.5-1-1 0-.6.5-1 1-1 .6 0 1 .4 1 1m-182 .9c0 .5-1.3 1.1-3 1.3-2.9.4-3.7-.1-2.3-1.5 1-1 5.3-.8 5.3.2m-278.8 6.3c-1.6 5.7-4.2 9.1-4.2 5.3 0-2.2 4.1-11.5 5-11.5.5 0 .1 2.8-.8 6.2m-108.6-2.6c-.4.9-.9 1.5-1.1 1.2-.3-.3-.3-1.3.1-2.2s.9-1.5 1.1-1.2c.3.3.3 1.3-.1 2.2m371.8-1c2 1.9 2 2.3 0 4.5-1.6 1.8-1.7 1.7-3.6-.7-3.3-4.1-.1-7.5 3.6-3.8m271.6.9c0 .8-.4 1.5-.9 1.5-1.3 0-2.2-1.6-1.4-2.4 1.1-1.1 2.3-.6 2.3.9m-257.9 2.7c.8 1.6.8 2.3-.2 2.9-1.8 1.2-3.2 1.1-2.4 0 .3-.5.1-1.2-.5-1.6-.5-.3-1-1.5-1-2.5 0-2.4 2.6-1.6 4.1 1.2m293.4-1c.6 0 2.2-.3 3.6-.6 2.8-.6 5.6 1.5 4.5 3.3-.8 1.2-11.6.9-11.6-.3 0-.5-.8-1.5-1.7-2.3-1.6-1.3-1.5-1.4 1.2-.7 1.7.3 3.5.6 4 .6m-103.5.8c0 .5-.5 1-1.1 1-.5 0-.7-.5-.4-1 .3-.6.8-1 1.1-1 .2 0 .4.4.4 1m43.2.6c2.7.8 7.6 7 8.7 11.1 2.5 8.9.5 19.1-6.6 33-9.2 18.2-22.9 33.4-41.3 45.4-13.5 8.9-48.7 25.8-50.8 24.5-2.3-1.4 13.8-43.5 22.4-58.8 17.7-31.5 36.2-50 55.4-55.4 4.1-1.1 7.6-1.1 12.2.2m79-.1c0 .5-.5 1.1-1.1 1.3s-1.1-.4-1.1-1.3.5-1.5 1.1-1.3 1.1.8 1.1 1.3m-306.7.5c.3.5-.3 1-1.5 1s-1.8-.5-1.5-1c.3-.6 1-1 1.5-1s1.2.4 1.5 1m24.6 7.6c2.9 6.5 4.2 16.5 2.9 23.3-1.6 8.8-3.1 8.8-2.9.1.2-5.9-.3-9.3-2.6-16.1-2.7-8.3-2.8-11.9-.5-11.9.6 0 2 2.1 3.1 4.6m-296.4-3c-.3.3-1.2.4-1.9.1-.8-.3-.5-.6.6-.6 1.1-.1 1.7.2 1.3.5m561.3 2.3c0 .5-.8 1.1-1.7 1.5-2.1.6-5.1 2.5-7.1 4.3-1.6 1.5-2.2 1.6-4 .4-2.4-1.5.7-4.6 6.2-6.3 5-1.5 6.6-1.5 6.6.1m-355.6 2.4c3.4 2.4 6.5 8.9 6.6 13.7.1 13.3-10.8 35.1-24.9 50.1-12.8 13.7-22.8 20.7-44.6 31.3-21.1 10.3-25.3 12.1-26.1 11.3-.9-.8 3.9-16.8 8.2-27.9 14.7-37.4 36.1-66.1 57.6-76.9 10.3-5.2 17.4-5.7 23.2-1.6m65.7-.3c1.7 1.4 2 1.9.9 2-.9 0-2.3-.9-3.3-2-2.2-2.6-.6-2.6 2.4 0m257.9 1.9c0 .5-.7 1.1-1.5 1.5-.9.3-1.5 0-1.5-.9 0-.8.7-1.5 1.5-1.5s1.5.4 1.5.9m44 .5c0 .8.6 1.6 1.3 1.9s.5.7-.8 1.2c-1.1.3-2.8 1.1-3.8 1.6-1.1.6-2.2.7-2.5.3-.4-.4-.1-.9.6-1.1.6-.3 1.2-1.6 1.2-2.9 0-1.7.6-2.4 2-2.4 1.1 0 2 .6 2 1.4m-31.4 5.5c-1.1 1.8-3.6 1.3-3.6-.7 0-1 .3-2.2.7-2.6 1-1 3.7 2 2.9 3.3m-293.9-.8c.2 1.6-.1 1.9-.9 1.1-.5-.5-.7-1.5-.4-2.1 1-1.5 1.2-1.4 1.3 1m320.3 4.9c0 .5-.4 1-1 1-.5 0-1-.5-1-1 0-.6.5-1 1-1 .6 0 1 .4 1 1m-7 3.8c0 .5-.5 1.3-1.2 2-1.6 1.6-.9 2 3.7 2.6 2.2.2 4.2.5 4.4.5.3.1-.6 1.3-2 2.7-2.7 2.8-9.7 6.4-12.7 6.4-2.4 0-4.6 2.5-3.6 4.1.8 1.4 11.3.5 14.6-1.2 1.4-.8 2.3-.8 3.1 0 1.3 1.3-1.8 5.1-4.2 5.1-.9 0-2.2.9-2.9 2-1 1.7-1 2 .5 2 1 0 2.5.5 3.3 1 1.2.7 1.2 1.2.2 2.2-.9.9-1.2.9-1.2-.1 0-.7-.6-1.1-1.3-.8s-2.4-.4-3.8-1.4c-3-2.3-4.7-2.4-7.1-.2-1.7 1.5-1.9 1.5-3.6 0-1-1-2.4-1.7-3-1.7-1.7 0-1.5-1 .5-3.2 2.2-2.4 1.3-3.1-5.1-3.6-6.3-.5-8.2 1.1-4.6 4 2.1 1.7 2.1 1.8.3 1.8-3.4 0-8.3-2.1-8.3-3.6 0-.8.9-1.9 2-2.6s2-2.3 2-3.5c0-1.4.6-2.3 1.5-2.3.8 0 1.5-.3 1.5-.8 0-.4 3-.5 6.7-.4l6.8.4-2.8-2.6c-1.5-1.4-2.3-2.6-1.8-2.6.6 0 1.1-.9 1.1-2 0-1.4 1-2.2 3.8-2.9 7.1-1.8 13.2-2.4 13.2-1.3m-181 1.7c0 .8-.7 1.5-1.5 1.5-1.6 0-2-1.2-.8-2.3 1.1-1.2 2.3-.8 2.3.8m-125.7.4c1 .1.9 4.1-.2 4.1-.5 0-1.1-.7-1.5-1.5-.3-.8-1.5-1.5-2.6-1.5s-2-.4-2-.9c0-.8 1.9-.9 6.3-.2m283.7 2.7c0 .8-.5 1.2-1 .9-.6-.4-.8-1.1-.5-1.6.9-1.4 1.5-1.1 1.5.7m-273.2 2.8c-.1 1.1.1 2.7.6 3.4 1.2 1.9.2 2.4-5.3 3-4.7.4-4.9.3-4.4-1.6.3-1.2 1.1-2.7 1.9-3.3s1.4-1.7 1.4-2.4c0-1.6 1.9-2.3 4.3-1.7 1.2.3 1.7 1.2 1.5 2.6m9.2.5c0 .9-3.3 2.1-5.9 2.1-2 0-.2-1.7 2.4-2.3 3.2-.8 3.5-.7 3.5.2m247.4 3.7c.9.3 1.6 1.2 1.6 2 0 1.7-1.2 1.8-2.8.2-2.2-2.2-1.6-3.3 1.2-2.2m1.6 7.9c0 .8-.4 1.5-1 1.5-.5 0-1-.7-1-1.5s.5-1.5 1-1.5c.6 0 1 .7 1 1.5m-175 .5c0 .5-.5 1-1.1 1-.5 0-.7-.5-.4-1 .3-.6.8-1 1.1-1 .2 0 .4.4.4 1m-104 1.6c0 .8-.5 1.2-1 .9-.6-.4-.8-1.1-.5-1.6.9-1.4 1.5-1.1 1.5.7m-212.5 1.9c-1.6.8-2.5 1.5-2 1.5 1 .1-18 5.8-36.8 11-6 1.7-12.4 3.7-14.4 4.5-4.4 1.9-6.7.5-3.2-1.8 2.5-1.6 41.6-13.7 45.9-14.3 1.4-.2 3.9-.7 5.5-1.3 1.7-.5 4.1-.9 5.5-.9 2.4 0 2.4 0-.5 1.3m244-.5c.3.5-.1 1-1 1s-1.3-.5-1-1c.3-.6.8-1 1-1s.7.4 1 1m256.5 3c0 .5-.9 1-2.1 1-1.1 0-1.7-.5-1.4-1 .3-.6 1.3-1 2.1-1s1.4.4 1.4 1m-498.8 2.7c-.4 1-2.8 5.8-5.4 10.8-8.7 17.1-19.3 50.4-21.7 68.8-3.1 22.6.1 57.5 6.9 77.1 1.1 3.3 1.7 6.2 1.4 6.5s-6 1.8-12.7 3.2c-33.3 7.2-72.5 17.8-82.4 22.4-2.9 1.3-5.5 2-5.8 1.4-.8-1.2 16.8-54.7 28.8-87.9 2.5-6.9 9-26 14.6-42.5 11.3-33.9 15.2-43.9 17.5-44.3.9-.2 1.6-.8 1.6-1.3 0-.6.9-.7 2-.4 1.2.4 2 .2 2-.5s.6-1 1.4-.7 1.7.3 2.1-.1c.6-.7 1.1-.8 5.3-1 1.5-.1 2.1-.6 1.6-1.4s-.2-.9.9-.5c1 .3 1.7.2 1.7-.4s.9-.8 2-.4c1.2.4 2 .2 2-.5s.7-1 1.5-.7c.8.4 1.7.2 2-.4.4-.5 1.1-.7 1.6-.3.5.3 2.3-.2 4.1-1 1.7-.9 3.9-1.6 4.9-1.6s3-.5 4.6-1.2c1.5-.6 3.1-1.2 3.6-1.3l1-.5c.1-.1 1.1-.4 2.2-.6 2-.3 10.8-2.1 11.2-2.3.1-.1-.1.7-.5 1.6m-321.8 8.3c2.3.8 2.6 1.5 2.5 5.2-.2 9.1.2 8.8-16.3 13-8.2 2.1-15.1 3.6-15.3 3.4-.3-.2 1.4-3.2 3.7-6.5 4.5-6.7 12.6-13.8 16.8-14.7 1.5-.3 3.2-.7 3.7-.9 1.7-.6 2.3-.5 4.9.5m818 .4c-2.1 1.5-3 1.4-1.9-.3.3-.6 1.4-1.1 2.3-1.1 1.3 0 1.3.2-.4 1.4m-1001.8 8.3c-5.6 11.1-13.3 21.1-25 32.8-24.8 24.7-49 36.1-115.6 54.5-10.4 2.8-12.2 3.1-19 2.3-7.5-.8-7.5-.8-9.5-4.8-1.7-3.4-2-6.1-2-19 0-15.1.3-18.2 2.5-24.3.7-1.8 1-3.5.7-3.8s-12.9 2.4-27.9 6.1-31.6 7.8-36.8 9.1-9.5 2.2-9.7 2.1c-.4-.5 3.3-10.7 4.3-11.7.5-.5 5.5-1.9 11-2.9 23.5-4.5 63.7-15.3 67.7-18.2 3.5-2.5 3.9-2.2 2.7 2.1-.5 1.8-.7 3.7-.4 4.1.3.5-.2 1.9-1 3.1-1.6 2.5-4.9 15.1-3.8 14.6.4-.2 4.5-2.2 9.2-4.5 4.7-2.2 14.9-6.6 22.6-9.6 7.8-3 16.7-6.7 19.8-8.1 9.7-4.4 30.8-10.5 73.1-21.1 16.5-4.1 31.4-7.9 33-8.4 1.7-.5 4-1 5.3-1 2.2-.1 2.2 0-1.2 6.6m-85 2.6c-3.5 7.7-3.9 8-11 9.3l-3.9.7 3.1-4.4c4.1-6 13.8-14.7 14.9-13.5.2.2-1.2 3.7-3.1 7.9M3806 2276c0 .5-.4 1-1 1-.5 0-1-.5-1-1 0-.6.5-1 1-1 .6 0 1 .4 1 1m15.2 1.6c2 1 4.5 1.4 6.9 1.1 3.8-.5 5.9.6 5.9 3.1 0 1.2-.9 1.3-4.2.8-11.8-1.9-12.8-1.9-14.7-.2-1.8 1.6-2 1.6-4-.1-2.8-2.4-2.7-3.2 1.2-4.8 4.2-1.8 5.2-1.8 8.9.1m-159.4 4.2c.2.7-.3 1.2-1.2 1.2s-1.6-.7-1.6-1.6c0-1.7 2.2-1.4 2.8.4m17.2 6.1c0 1.2-2.8 2.2-3.4 1.2-.3-.5-.3-1.1.1-1.5.9-.9 3.3-.7 3.3.3m-428.1 5.8c-1.9 6.1-6 14.5-6.6 13.9-.4-.3 1.1-4.9 3.3-10.2 3.7-9.1 5.9-11.6 3.3-3.7m539.1.9c0 .8-.9 1.4-2 1.4-2.2 0-2.6-1-.8-2.8 1.3-1.3 2.8-.7 2.8 1.4m-143.5 1.2c0 1.8-2 1.5-2.3-.4-.3-1 .1-1.5 1-1.2.7.3 1.3 1 1.3 1.6m150.7 3.4c-1.5 1.5-2.4.6-1.6-1.6.5-1.2 1-1.4 1.7-.7.8.8.8 1.4-.1 2.3m10.8-1.3c0 .6-.4 1.2-.9 1.5-1.3.8-4.2-.4-3.5-1.5.7-1.2 4.4-1.2 4.4 0m13.8.9c.2.7-.3 1.2-1.1 1.2-.9 0-1.7.5-1.9 1.2-.3.7-1.2.9-2.4.4-1.8-.7-1.8-.8.6-2.6 2.7-2.1 4.1-2.1 4.8-.2m-165 2c.2.7-.6 1.2-1.7 1.2-2.1 0-2.7-1.1-1.4-2.4.9-.9 2.6-.2 3.1 1.2m158.9 4.8c.6 1.8-2.4 2.5-5.4 1.3-2.2-.8-2.5-1.2-1.3-2 1.9-1.2 6.2-.7 6.7.7m-778.2 1.4c.3.5.1 1-.4 1-.6 0-1.1-.5-1.1-1 0-.6.2-1 .4-1 .3 0 .8.4 1.1 1m314-.1c.7 1.2-1.2 2.4-2.5 1.6-1.1-.7-.4-2.5 1-2.5.5 0 1.1.4 1.5.9m319.9 1.2c-.7 1.2-4.4 1.2-4.4 0 0-.5.6-1.1 1.3-1.4 1.7-.6 3.8.3 3.1 1.4m123.6-1.1c.8.5 1.5 2.5 1.6 4.4.1 3.1-.1 3.3-1.2 1.8-.7-.9-1.4-2.3-1.4-3 0-.6-1.1-1.2-2.5-1.2-1.8 0-2.3-.4-1.9-1.5.7-1.7 3.2-1.9 5.4-.5m-416.9 2.3c-1.3 1.3-2.6.3-1.6-1.2.3-.6 1.1-.8 1.7-.5.6.4.6 1-.1 1.7m-273.1.2c0 1.8.8 1.5-14 5-15.1 3.5-38 10.2-58.2 16.9-9 2.9-16.5 5.1-16.8 4.9-1.2-1.1 4.4-3.6 19.4-8.3 8.8-2.9 19.3-6.3 23.1-7.7 5.5-2 42.4-11.9 45.8-12.2.4-.1.7.6.7 1.4m139.5.4c.3.5.1 1.2-.5 1.6-.5.3-1-.1-1-.9 0-1.8.6-2.1 1.5-.7m399.5.1c0 .5-.4 1-1 1-.5 0-1-.5-1-1 0-.6.5-1 1-1 .6 0 1 .4 1 1m174.5 2.1c.5.5-.3 1-2 1.1-9.1.5-11.5.4-10.4-.2.6-.4.9-1.2.5-1.8-.8-1.3 10.4-.4 11.9.9m-575.3 4.2c-.7.8-.9 1.6-.6 1.9.7.8-2.4 6.8-3.6 6.8-.5 0-.2-2.1.6-4.8.9-2.6 1.8-5.3 2-6.1.3-1.1.8-1.1 1.6-.3s.8 1.5 0 2.5m564.6 1.5c.2.7-.2 1-1.2.6-.9-.3-1.6-1.1-1.6-1.6 0-1.3 2.3-.5 2.8 1m-149.8.2c0 .5-.4 1-1 1-.5 0-1-.5-1-1 0-.6.5-1 1-1 .6 0 1 .4 1 1m-1086.4 6.7c-.3 2.1-.6 4.8-.6 6 0 1.7-.9 2.4-3.7 3.2-6.4 1.8-6.6 1.6-5.8-3.5.9-6.4 1.3-7.2 4.3-8.3 5.5-2 6.5-1.5 5.8 2.6m528.9 5.6c-9.2 34.3-26.4 67.9-48 94.2-24.7 30-57.5 52.4-87 59.3s-54.6 4.2-80.5-8.8c-11.7-5.8-19.2-11.3-28.1-20.7-8.9-9.3-12.7-14.7-17.9-25.1-5.1-10.1-5.7-12.9-3.3-13.5 7.7-2.2 7.6-2.2 10.6 4.5 5.5 12.8 19.6 30.5 27.9 35.2 2.9 1.6 2.5 1.1-2.4-4-7.1-7.4-16-19.9-20.4-28.6-1.8-3.6-3.8-6.9-4.4-7.3-.5-.3-1-1-1-1.4 0-.9 11.2-5.3 19.5-7.7 3.3-.9 13.3-4.5 22.3-8 8.9-3.5 16.7-6.4 17.2-6.4.6 0 1-.4 1-1 0-.5 1.8-1.4 4-2 2.1-.6 4.2-1.5 4.6-2.1.8-1.3-5-.3-13.1 2.3-3.3 1.1-9.6 2.8-14 3.8s-15.3 4.1-24.2 6.9-16.8 5.1-17.5 5.1c-1.3 0-6.5-12.6-5.6-13.5.2-.2 7.3-2.4 15.8-4.8 8.5-2.5 19.6-5.7 24.5-7.2 5-1.4 15.2-4.6 22.8-7.1 7.7-2.5 14.1-4.3 14.4-4.1.2.3.9 3.8 1.4 7.9 1.1 7.6 5.2 17.8 9.5 23.5 3 3.9 10 8.2 15.5 9.4 5.7 1.3 15.1-.6 22.4-4.4 8-4.3 20.6-17 28.4-28.7 3.5-5.2 9.3-15.4 12.8-22.5 7.1-14.3 8.8-16.8 8.1-11.8-.3 1.8 0 3.4.6 3.6 1.4.5 26.3-5.9 43.9-11.2 7.2-2.2 16.8-4.9 21.2-6 4.4-1.2 10.7-2.9 14-4 3.5-1.1 6.1-1.5 6.4-.9.2.5-.4 3.7-1.4 7.1m213.4-5.4c-1.5.5-2.2-.6-1.4-1.9.6-.9 1-.9 1.6.1.5.8.4 1.5-.2 1.8m438.6.1c-1.1 1.2-4.4 3.6-7.4 5.4-6.5 3.9-25.8 11.9-27.5 11.3-.9-.3 33.3-18.1 35.8-18.5.5-.1.1.7-.9 1.8m-389.5.4c0 .3-.4.8-1 1.1-.5.3-1 .1-1-.4 0-.6.5-1.1 1-1.1.6 0 1 .2 1 .4m98 0c0 .2-.8 1-1.7 1.7-1.6 1.3-1.7 1.2-.4-.4s2.1-2.1 2.1-1.3m-222.5 5.4c-3.6 9.9-6.7 12.9-3.4 3.4 1-3.1 2.1-6.3 2.4-7s.9-1.1 1.4-.7c.6.3.5 2-.4 4.3m-694.5 1.4c0 2.9-.4 5.8-.8 6.4-.7 1.1-14.1 4.8-14.9 4.1-.5-.6 2.2-12.5 3-13.4.8-.8 6.7-2.1 10-2.2 2.6-.1 2.7.1 2.7 5.1m911-2.7c0 .3-3.3 2.1-7.2 4.1-8.5 4.3-23.8 9.7-23.8 8.4 0-1 5.5-3.6 19-9.1 9.1-3.6 12-4.5 12-3.4m-142 3.2c0 1.2-3.3 4.3-4.7 4.3-1.9 0-1.6-2.7.5-3.9 2-1.2 4.2-1.4 4.2-.4m9.3 0c-.7.2-1.9.2-2.5 0-.7-.3-.2-.5 1.2-.5s1.9.2 1.3.5m321.8 4.6c-1.3 1.3-2.6.3-1.6-1.2.3-.6 1.1-.8 1.7-.5.6.4.6 1-.1 1.7m-651.6 8.9c-1.3 4-8.4 17.3-13.4 24.7-5.5 8.3-13.2 16.6-17.3 18.7-2.7 1.4-2.9 1.3-3.7-.8-1.1-2.9.1-10.9 3.5-22.4 4-14 3.3-13.3 16.9-18.1 14.2-5 14.9-5.1 14-2.1m500.5-1.7c0 1.4-27.6 13.7-39 17.3-9.1 3-21.2 5.9-29.7 7.1-9.2 1.4-9.3 1.4-9.3-.4 0-.8.2-1.5.4-1.5s4.8-.9 10.1-2 11.5-2 13.6-2 3.9-.4 3.9-.9 2.5-1.5 5.5-2.1c7.1-1.5 22.4-6.7 34.5-11.8 5.2-2.2 9.6-4.1 9.8-4.1.1-.1.2.1.2.4m-261.9 4.8c-.8.8-1.1.7-1.1-.4 0-.9.3-1.9.7-2.3s.9-.2 1.1.4c.3.7-.1 1.7-.7 2.3m-51.1 3.7c0 .5-.5 1-1.1 1-.5 0-.7-.5-.4-1 .3-.6.8-1 1.1-1 .2 0 .4.4.4 1m435 4.9c0 1.2-2.8 2.2-3.4 1.2-.3-.5-.3-1.1.1-1.5.9-.9 3.3-.7 3.3.3m13.5 4.7c-1 .7-2.2 1.1-2.8.7-.5-.3.1-1.4 1.4-2.4 1.6-1.2 2.5-1.4 2.8-.7.2.6-.4 1.7-1.4 2.4m-487 5c-.9 2.4-2.1 4.4-2.6 4.4s0-2.4 1.1-5.3c1.1-2.8 2-5.4 2.1-5.7 0-.3.3.1.6.8.3.8-.2 3.3-1.2 5.8m25.5-5.6c0 .5-.2 1-.4 1-.3 0-.8-.5-1.1-1-.3-.6-.1-1 .4-1 .6 0 1.1.4 1.1 1m152.5 1c-.3.5-1 1-1.6 1-.5 0-.9-.5-.9-1 0-.6.7-1 1.6-1 .8 0 1.2.4.9 1m-789.4 3.3c-1 .9-1.1.8-.5-.6.3-1 .9-1.5 1.2-1.2s0 1.1-.7 1.8m780.4.6c-.3.6-1.1 1.1-1.7 1.1s-.6-.6.2-1.5c1.4-1.7 2.6-1.3 1.5.4m274.4 2.6c.2 1.3-3.1 5.2-10.8 12.7-6.1 5.9-11.5 10.8-12 10.8-.4 0-2.7 1.8-5 4-4.2 4-27.6 20-29.3 20-2 0-.2-1.9 7-7.3 4.2-3.1 8.5-5.7 9.7-5.7 1.3 0 1.6-.3.8-.8q-1.2-.75 4.5-5.4c7.1-5.8 29.2-26.5 31-29 1.6-2.2 3.6-1.9 4.1.7m-1054.1 2.8c-.2 2.6.1 3.2 2.2 3.8 2.6.7 2 1.2-2.9 2.2-2.2.5-2.3.4-1.7-3.1.3-2 .6-4.5.6-5.5s.5-1.5 1.1-1.2c.6.4.9 2.1.7 3.8m1077.5.3c1.2 1.2-.6 3.4-2.9 3.4-2.6 0-3-1-1.2-2.8 1.3-1.3 3.1-1.6 4.1-.6m-983.3 7.1c-.1 1.1-23.9 8.7-24.7 7.9-.9-.9 7.6-4.4 15.9-6.6 8.5-2.2 8.8-2.2 8.8-1.3m31.5 7c3.3 3.8 3.1 4.9-1.2 6-2.1.6-16.8 4.7-32.8 9.1-15.9 4.5-32 8.9-35.7 9.8-3.8.9-6.8 2-6.8 2.5 0 1.2 1.3 1.1 9.5-.6 3.8-.8 8.6-1.4 10.5-1.4 1.9.1 2.6.3 1.5.6-1.1.2-2.9.8-4 1.3s-5.1 1.9-9 3c-3.8 1.2-7.5 2.3-8.1 2.6-.7.3-1.7-.8-2.3-2.3s-2.1-4.3-3.2-6c-2.6-4-1.8-5.3 3-5.3 3.6 0 11.1-2.1 21.6-6 11.1-4.1 49.9-15.7 53.3-15.9.7-.1 2.4 1.1 3.7 2.6m-51.5 7.9c0 .8-1.1 1.5-2.7 1.5-7.5.4-10.9 1-18.5 3.3-6.3 2-8.4 2.3-9 1.3-1.6-2.5-.7-3.5 3.5-3.9 2.3-.3 6.2-1 8.7-1.6 5.6-1.4 16.2-2.9 17.3-2.4.4.2.7 1 .7 1.8m234.5 4.9c1 3.8 1.4 7 .9 7.4-2 1.7-7.5 3.4-8.4 2.5-.5-.5-1.2-4.2-1.6-8.1l-.7-7.2 3.4-.9c1.9-.5 3.7-.8 4-.6s1.4 3.3 2.4 6.9m283.6 19.5c-4.5 13.2-9.5 27-11.1 30.7-1.7 3.6-3 7.2-3 7.9 0 .8-.4 1.4-.8 1.4-.5 0-1.4 1.2-2 2.6-1.8 3.9-3.1 2-2-2.8 1.5-6.8 4.1-14.2 10.6-29.8 5.1-12.3 7.6-18.3 14.7-35.5.7-1.8.9-1.8 1.2-.3.2 1-3.2 12.6-7.6 25.8m717.1-22.8c-.7.7-1.2.8-1.2.2 0-1.4 1.2-2.6 1.9-1.9.2.3-.1 1.1-.7 1.7M2806 2401c0 1.3-5.3 7.4-15.8 18.1-4.6 4.8-8.5 9.1-8.5 9.5-.1 1.6-16.4 14.2-29.2 22.8-17 11.4-33.3 18.8-51.4 23.6-8 2.1-3.5 2.1 6.8 0 14.8-3 25.4-6.6 36-12.1 18.4-9.6 27.6-16.6 52.1-39.8 6.6-6.2 12-11 12-10.6 0 .3-1.8 3.7-4.1 7.5-14.5 24.5-49.3 51.5-79 61.4-17.1 5.7-25.5 7.1-42.4 7.1-16.6-.1-27.1-2-41.5-7.7-12.8-5-32-17.4-30.5-19.7.2-.5 2.4-1.1 4.7-1.4 2.4-.4 10.4-2.8 17.8-5.5 24.1-8.8 79.7-26.7 110.8-35.7 10.3-3 27.9-8.3 39.2-11.9 22.1-6.9 23-7.1 23-5.6m-487.3 1.6c-.3.3-1.2.4-1.9.1-.8-.3-.5-.6.6-.6 1.1-.1 1.7.2 1.3.5m-13.2 2.3c-1.5 1.3-9.9 3.8-11.2 3.4-2.2-.8 1-3.1 4.8-3.6 6.3-.7 7.3-.7 6.4.2m255.4 10.7c2.3 4.8 4 8.8 3.9 8.9-.2.2-4.3 1.5-9.3 2.9-4.9 1.5-11.5 3.5-14.5 4.5s-7.3 2.3-9.5 2.9c-2.2.5-10.5 3.3-18.5 6.2-22.7 8.1-38.1 12.9-69.5 21.7-4.5 1.2 1.1-2.5 8.5-5.7 4.1-1.8 8.4-3.8 9.5-4.5s6.7-2.7 12.5-4.5c20.8-6.3 33.4-10.8 33.8-11.9.5-1.5-9.2-.4-12.9 1.5-1.4.7-6.8 2.4-12 3.9s-12 3.5-15.2 4.6c-9.5 3.2-11 2.1-5.8-4.2 2.4-2.9 4.7-4.1 12.8-6.7 5.4-1.8 11.2-3.7 12.8-4.3 1.7-.5 12.4-4.1 23.9-8 11.6-3.8 21.5-7.4 22.2-8 1-.8 20.6-7.7 22.5-7.8.4-.1 2.5 3.8 4.8 8.5m-94.9-3c0 2.6-2 5.4-4.5 6.4-1.3.5-14.7 4.3-29.7 8.5-37.1 10.3-43.9 12.5-43.3 13.6.4.5 1.7.9 3.1.9 3.2 0 3.1 1.5-.3 2.8-6.3 2.4-15.4 5.2-16.8 5.2-1.7 0-13.4 3.7-26 8.1-4.3 1.6-8 2.7-8.2 2.5-.6-.5 2.5-13.8 3.3-14.6.5-.4 5.4-2 10.9-3.5 10.2-2.7 16.1-4.6 50.5-15.6 20.6-6.6 53.6-15.6 58.3-15.8q2.7-.15 2.7 1.5m872.5 2.4c.3.6-.5 1-1.9 1s-2.8-.5-3.1-1c-.3-.6.5-1 1.9-1s2.8.4 3.1 1m8 5.6c1.9 1.6 1.9 1.6-.5.9-3.1-.9-5-2.5-2.9-2.5.7 0 2.3.8 3.4 1.6m7.6 7c1 .9 1.5 2.2 1.2 3-.9 2.4-3.8 1.5-5-1.6-1-2.5-.9-3 .5-3 .8 0 2.3.7 3.3 1.6m-46.1 1.4c0 1-.2 1.1-12 3.6-18.2 3.8-20.3 2.8-3.3-1.6 11.7-3.1 15.3-3.5 15.3-2m-683 6.2c-7.8 3.7-29.1 10.9-30.2 10.2-.4-.3-.8-.9-.8-1.3 0-.8 26.5-10 32.5-11.4 5-1.2 4.5-.3-1.5 2.5m-389.4 2.7c-.6.8-8.3 3.1-10.7 3.1-2.3 0 .2-1.5 4.4-2.7 5.3-1.4 7-1.5 6.3-.4m342.9 10.2c2.6 3.3 4.5 6.2 4.3 6.4s-3 1-6.3 1.8c-5.8 1.5-21.8 7.6-23.1 8.9-.6.7 5.1-1.1 20.1-6.1 5-1.7 9.7-3.1 10.5-3.1 1.4 0 4.6 3.8 3.8 4.5-.2.2-5.5 2-11.8 4-25.1 7.9-30.3 9.7-52.5 17.6-12.6 4.4-27.2 9.5-32.2 11.1-5.1 1.6-9.3 3.4-9.3 4s.6.8 1.3.5c2-.8 11.3-3.5 28.7-8.3 9.1-2.5 18.5-5.4 21-6.4 4.9-2 21.8-7 23.5-7 .5 0-1.2 1.1-4 2.5-6.9 3.5-3.6 2.8 21.8-4.6 21.7-6.2 21.8-6.2 23.8-4.3 2 2 2 2.1-2.2 17.2l-4.2 15.2-3.6.6c-13.2 2.2-61.9 11.5-85.6 16.4-7.7 1.6-21.4 4.3-30.5 6s-30 5.8-46.4 9.1c-16.5 3.2-30.1 5.7-30.3 5.6-.2-.2.6-3.9 1.7-8.2 3-11.7 1-11.8-4.5-.1-3.3 6.8-5.4 10-7.3 11-2.7 1.3-21.2 5.9-21.8 5.3-.2-.1.7-3.8 2-8.2 3-10.4 3.9-16.5 2.6-16.5-.6 0-4.1 6.2-7.8 13.7l-6.7 13.8-9.5 2.1c-5.2 1.2-9.8 2-10.2 1.7-.4-.2-.3-1.5.3-2.9 1.4-3.8 8.5-29.9 10-36.7.7-3.3 1.9-6.2 2.8-6.6s10.8-3.2 22.1-6.1c40.1-10.3 53.9-14.3 87.5-25.7 18.7-6.3 35.4-11.8 37.1-12.3 1.8-.4 4.2-1.5 5.4-2.3 1.3-.9 3.4-1.4 4.9-1.1 2.5.5 10.2-1.5 34.6-9.1 16.5-5.2 20.8-6.1 21.3-4.5.4 1 .6 1 1.2 0 .7-1.2 9.1-4.7 11.7-4.9.6-.1 3.3 2.6 5.8 6m758.5-5.1c0 .5-.4 1-1 1-.5 0-1-.5-1-1 0-.6.5-1 1-1 .6 0 1 .4 1 1m418 0c0 .5-.5 1-1.1 1-.5 0-.7-.5-.4-1 .3-.6.8-1 1.1-1 .2 0 .4.4.4 1m-370 6c0 .5-.4 1-1 1-.5 0-1-.5-1-1 0-.6.5-1 1-1 .6 0 1 .4 1 1m-995.2 3.1c-.2.6-6.7 3.1-14.3 5.6-19 6-33.6 10.9-35.7 11.8-1.3.5-1.8.2-1.8-.9 0-.9-.6-1.6-1.2-1.6-1.4 0-10.1 2.7-13.4 4.2-1.2.5-3.2.8-4.5.6-2.1-.4-1.8-.7 2.4-2.6 2.7-1.2 5.8-2.2 6.9-2.2s4.1-.7 6.7-1.4c2.5-.8 9.2-2.7 14.8-4.1 5.5-1.5 11.4-3.4 13-4.2 1.5-.8 5.7-2.1 9.3-3 3.6-.8 7.9-1.8 9.5-2.3 4.5-1.2 8.7-1.2 8.3.1m219 3.7c.3.9-.2 1.3-1.4 1-.9-.1-1.9-.9-2.2-1.6-.3-.9.2-1.3 1.4-1 .9.1 1.9.9 2.2 1.6m1113.2.2c0 .5-.2 1-.4 1-.3 0-.8-.5-1.1-1-.3-.6-.1-1 .4-1 .6 0 1.1.4 1.1 1m-432 5c0 .5-.7 1-1.6 1-.8 0-1.2-.5-.9-1 .3-.6 1-1 1.6-1 .5 0 .9.4.9 1m-854.5 4c-2.2 1-5.3 1.8-7 1.8-2.4 0-2-.3 2.5-1.8 7.2-2.3 9.6-2.3 4.5 0m1037.1 2.1c.8 1.4-1.1 3.3-2.5 2.5-1.1-.7-.4-3.6.9-3.6.5 0 1.2.5 1.6 1.1m218.4 1.9c0 .5-.7 1-1.5 1s-1.5-.5-1.5-1c0-.6.7-1 1.5-1s1.5.4 1.5 1m-288.3 2.6c-.3.3-1.2.4-1.9.1-.8-.3-.5-.6.6-.6 1.1-.1 1.7.2 1.3.5m231.3 1.5c0 .5-.4.9-1 .9-.5 0-1-.7-1-1.6 0-.8.5-1.2 1-.9.6.3 1 1 1 1.6m69-1.1c0 .5-.6 1-1.4 1s-1.8-.5-2.1-1c-.3-.6.3-1 1.4-1 1.2 0 2.1.4 2.1 1m-1329 7c0 1.7-19.8 10.6-21.9 9.8-.7-.2-.6-1.2.2-2.8 1-1.9 3.1-3 10.2-5.1 10.4-3.1 11.5-3.3 11.5-1.9m1149 2.5c0 .6-4.4 3.3-9.9 5.8-9.5 4.5-13.9 5.8-12.6 3.7.5-.9 11.4-7.5 17.4-10.6 2.6-1.4 5.1-.9 5.1 1.1m259.2 0c0 .5-.5 1.1-1.1 1.3s-1.1-.4-1.1-1.3.5-1.5 1.1-1.3 1.1.8 1.1 1.3m-39.2 3.5c0 .5-.4 1-1 1-.5 0-1-.5-1-1 0-.6.5-1 1-1 .6 0 1 .4 1 1m27.6 1.7c-.4 2.3-5.6 3.1-5.6.9 0-.8 1-1.7 2.3-1.9 1.2-.2 2.5-.5 2.9-.6.3 0 .5.7.4 1.6m-1423.6 1.2c0 2.3-4.9 6-9.8 7.6-2.9.9-5.6 1.5-5.9 1.2s-.1-1.8.4-3.4c.8-2.3 1.9-3 5.7-4 2.7-.7 5.1-1.4 5.4-1.8.9-.9 4.2-.6 4.2.4m1044 2.1c0 .5-.4 1-1 1-.5 0-1-.5-1-1 0-.6.5-1 1-1 .6 0 1 .4 1 1m-297.5 1c-.3.5-1 1-1.6 1-.5 0-.9-.5-.9-1 0-.6.7-1 1.6-1 .8 0 1.2.4.9 1m644.5 2c0 .5-.9 1-2.1 1-1.1 0-1.7-.5-1.4-1 .3-.6 1.3-1 2.1-1s1.4.4 1.4 1m-242 7.9c0 .5-.7 1.2-1.6 1.5-2.4.9-2.8.7-1.4-.9 1.4-1.7 3-2 3-.6m197 1c0 1.4-1.8 2.3-3 1.6-.6-.4-.8-1.1-.5-1.6.8-1.2 3.5-1.2 3.5 0m-277.5 2.1c.3.5.1 1-.4 1-.6 0-1.1-.5-1.1-1 0-.6.2-1 .4-1 .3 0 .8.4 1.1 1m-1075.9 8.2c-.3 1.8-3.6 12.4-7.3 23.6l-6.7 20.5-5.1 2.3c-9 4.2-9.1 3.8-3.9-13.2 2-6.6 5-16.6 6.8-22.4l3.2-10.5 4.8-.7c2.7-.4 5.4-1.2 5.9-1.7 2-2 3-1.1 2.3 2.1m1042.8-1.6c3.3.8 6.5 1.9 6.9 2.3.5.5-9.9 1.1-23 1.4-35.2.9-43.9 2.3-121.5 20-3.1.7-5.5 1-5.2.6.2-.4 1.8-1.1 3.6-1.4 1.7-.4 9.7-2.7 17.7-5.1 24.4-7.4 62.2-14.6 95.1-18.3 12.1-1.3 19.8-1.2 26.4.5"/><path d="M2965.6 2160.7c-14.9 3.1-36.6 13.3-49.3 22.9-10.2 7.8-25.6 24.4-22.7 24.4.4 0 4.1-2.8 8.2-6.2 10.3-8.5 30.1-21.6 40.2-26.5 16.9-8.3 33.7-13.3 44.5-13.3 8 0 11.6-1.3 6.5-2.4-5.5-1.1-20.2-.5-27.4 1.1m-50.6 81.7c-1.9.7-4.6 1.8-6 2.4-2.4 1.1-2.3 1.2.9.6 3.7-.7 10.1-3.1 10.1-3.9 0-.7-.9-.5-5 .9m-193-79.3c-19.2 2.5-43.4 12.6-61 25.5-10.8 7.8-33 30.6-33 33.7 0 1.7 2.2.2 10.1-6.9 22.6-20.5 47.9-36.1 71.4-44.1 10.7-3.6 24-6.3 31.1-6.3 5.8 0 5.6-1.6-.2-2.4-5.6-.7-9.8-.6-18.4.5m78.4 24.1c13.2 16.4 20.6 33.7 20.6 48 0 5.4 1.7 4.7 2.5-1 2-14.5-6.2-34.4-18.7-45.7-5.8-5.2-8.2-5.9-4.4-1.3m-132.2 76.3c-3.2 3.9-10.7 18.3-9.9 19.1.2.3 1.8-1.7 3.4-4.3 4.3-6.8 10.5-18.3 9.9-18.3-.2 0-1.8 1.6-3.4 3.5m81.3 63.5c-9.6 4.7-26.3 11.3-44 17.4-14.6 5-14.6 5.8.1 2.1 21-5.4 43.4-14.6 50.9-20.9 4.1-3.5 2.4-3.1-7 1.4m334 17.7c-17.5 44.7-48.1 83.8-84.8 108.4-14.4 9.6-24.8 14.7-39.8 19.3-8.3 2.6-10.5 3.5-7.9 3.5 4.9.1 23.1-4.2 31.4-7.3 34.5-13.1 73-52.9 93.6-96.9 4.2-8.9 11.3-28.2 12.3-33.5 1.2-6.1-1-3.2-4.8 6.5m-206 61.3c-.3.6.1.7.9.4 1.8-.7 2.1-1.4.7-1.4-.6 0-1.3.4-1.6 1m-323 15c-1.8.7-1.9.8-.2 1.5 2 .8 4.7 0 4.7-1.5 0-1.2-1.7-1.2-4.5 0m-14.4 5.8c-4.1 1.5-6.7 2.8-5.8 3 1.8.4 14.4-3.3 16.7-4.8 3-1.9-3.3-.9-10.9 1.8m-26.2 7.8c-1.2 1.5-1.1 1.6 1.1.9 4.6-1.4 5.8-2.4 2.9-2.5-1.5 0-3.3.7-4 1.6m-156.9 16.9c-1.4 1.6-1 1.8 1.4.9.9-.3 1.6-1 1.6-1.5 0-1.4-1.6-1.1-3 .6m224 39.2c-6.4 1.1-25.8 5.6-38 8.7-7.4 2-25.2 6.5-39.5 10.1-37.1 9.3-52.7 13.6-47.5 13 2.5-.4 19.6-4.2 38-8.6 36.4-8.7 65.9-15.3 73-16.4 15.9-2.4 30.7-7.7 20.4-7.4-2.2.1-5 .4-6.4.6m-127.5 3.8c-1.6.7-8.4 3-15 5.1-11.6 3.7-15 6.1-4 2.9 3.1-.8 6-1.3 6.4-1 .5.2 2.8-.6 5.2-1.9s6.3-3 8.6-3.7c2.3-.6 4-1.6 3.7-2-.7-1.1-1.2-1.1-4.9.6m-43.7 14.4c-17.6 6.2-14.7 6.9 3.9 1 5.1-1.7 9.5-3.4 9.8-3.9 1.1-1.8-2.8-.9-13.7 2.9m39 14.8c.7.3 1.6.2 1.9-.1.4-.3-.2-.6-1.3-.5-1.1 0-1.4.3-.6.6m-4 1c.7.3 1.6.2 1.9-.1.4-.3-.2-.6-1.3-.5-1.1 0-1.4.3-.6.6m1348.7-427.9c-5.5 1.4-10.3 2.9-10.7 3.5-.3.6-1.7 1.1-3 1.3-1.2.1-2.6.3-3 .3-1.3.2-.9 3.9.5 4.8 2 1.2 7.3.2 24.7-5 4.7-1.4 9.9-2.8 11.7-3.2 1.7-.3 3.7-1.3 4.3-2.1 1.7-2-1.5-3-5.2-1.6-1.5.5-2.6.6-2.2.1.9-1.6-6.7-.7-17.1 1.9m-77.5 6.1c0 .5-.9.7-2 .4s-2-.1-2 .5-.9.8-2 .5-2-.1-2 .5-1 .8-2.2.4c-1.6-.4-1.9-.2-1.3.8s.2 1.1-1.9.6c-2-.5-2.6-.4-2 .5.4.7.2 1-.7.7-2.1-.8-4.9 1-4.9 3.2 0 1.7.7 2 4.4 2 7.1 0 24.3-6.5 25.3-9.5.2-.6-1.6-1.1-4.2-1.3-2.5-.1-4.5.2-4.5.7m-31 7.3c-1.4.6-2.9 1.2-3.5 1.2-6.7.9-9.6 4-4.8 5.2 1.3.4 2.7 1.4 3.3 2.3.8 1.5 1.1 1.5 3.7-.1 1.5-.9 4.4-2.6 6.5-3.7 6.4-3.6 1.9-7.9-5.2-4.9m-21.7 7.2c-2.8 2.9-2.9 3.6-.4 3.6 2.7 0 8.1-2.1 8.1-3.1 0-.5-1.5-.9-3.2-1-2.8 0-3-.2-1.3-.9 1.3-.6 1.5-.9.5-.9-.8 0-2.5 1-3.7 2.3m-42.3 9.8c-1.6.6-2 1.2-1.2 1.5 1.8.7 6.2-.5 6.2-1.7s-1.8-1.2-5 .2m25.7.2c-2.6.7-5.1 1.6-5.5 2.1-.9.9 5-.3 9.8-2.1 4.5-1.6 1.9-1.6-4.3 0m-38.5 3.2c-2.9 1.4-5.2 3-5.2 3.6s.6.8 1.3.5c.6-.2 4-1.4 7.4-2.7 3.5-1.2 6-2.6 5.7-3.1-.9-1.5-3.8-1-9.2 1.7m23.6 1.1c.7.3 1.6.2 1.9-.1.4-.3-.2-.6-1.3-.5-1.1 0-1.4.3-.6.6m-16.3 3.9-3 1.4 4-.6c2.2-.4 4.4-1 5-1.5 1.4-1.4-2.6-.9-6 .7m-43.8 3.7c.3.5-.3.7-1.3.6-4.2-.6-11.4 2.3-11.4 4.5 0 .4 1.9.4 4.3.1 4.5-.5 14.7-4.3 14.7-5.4 0-.4-1.5-.7-3.4-.7s-3.2.4-2.9.9m111.1 4.3c-6.1 1.9-7.3 3.7-2.1 3.1q9.6-1.2 11.4-3.3c.9-1.1.6-1.4-1.7-1.3-1.6 0-5 .7-7.6 1.5m7.2 7.4c0 .5.5 1 1 1 .6 0 1-.5 1-1 0-.6-.4-1-1-1-.5 0-1 .4-1 1m-40.2 12.7c.7.3 1.6.2 1.9-.1.4-.3-.2-.6-1.3-.5-1.1 0-1.4.3-.6.6m-20.1 6c-.4.3-.7 1-.7 1.4 0 .9 3.9-.1 4.6-1.2.6-1-2.9-1.2-3.9-.2m264.8 47.3c.3.5.8 1 1.1 1 .2 0 .4-.5.4-1 0-.6-.5-1-1.1-1-.5 0-.7.4-.4 1m-1713.3 230.6c-1.8.8-4.3 1.5-5.7 1.6-1.3.1-2.2.5-1.9.9.4.7 4.7.4 10-.7 2.3-.4 4.2-3.5 2.1-3.3-.7 0-2.7.7-4.5 1.5m66.3 3.5c-1 1.4-.1 2.1 1.9 1.3.9-.3 1.3-1 1-1.5-.7-1.2-2.1-1.1-2.9.2m-77.7.6c.6.2 1.8.2 2.5 0 .6-.3.1-.5-1.3-.5s-1.9.2-1.2.5m58.5 5c.9.2 2.3.2 3 0 .6-.3-.1-.5-1.8-.5-1.6 0-2.2.2-1.2.5m25.7 32.7c-6.1 2.2-13.3 6.1-13.2 7 .1.5 2.6 1.1 5.7 1.2 4.6.3 5.9-.1 8.4-2.1 1.6-1.4 3.5-2.5 4.3-2.5s2.3-.7 3.4-1.5c1.6-1.3 1.7-1.6.4-2.5-2-1.3-4.7-1.2-9 .4m5 1.6c0 .5-.7 1-1.6 1-.8 0-1.2-.5-.9-1 .3-.6 1-1 1.6-1 .5 0 .9.4.9 1m-7 4c-.8.5-2.2 1-3 1-1.3 0-1.3-.1 0-1 .8-.5 2.2-1 3-1 1.3 0 1.3.1 0 1m1536.5 29c-3.3 1.6-12.8 5.1-21.1 7.9-51.6 17-98.6 15.7-143.7-4.1-4.8-2.1-9-3.8-9.4-3.8-1.4 0 2.6 3.5 7.7 6.8 18.1 11.6 49.4 22 72 23.8 18.5 1.4 44.4-3.5 65.5-12.6 13.4-5.7 32.3-16 35-19 2.4-2.6 1.2-2.4-6 1M2210 2543.5c0 .8.8 1.5 1.9 1.5 1 0 2.4-.7 3.1-1.5 1.1-1.3.8-1.5-1.9-1.5-2.1 0-3.1.5-3.1 1.5m-6.5 2.5c.3.5.8 1 1.1 1 .2 0 .4-.5.4-1 0-.6-.5-1-1.1-1-.5 0-.7.4-.4 1m-26.5 9c0 .5.5 1 1 1 .6 0 1-.5 1-1 0-.6-.4-1-1-1-.5 0-1 .4-1 1m1454 8.1c0 1.4 12.8 7.1 25.3 11.3 17.3 5.8 30.2 6.6 46.5 3 6.5-1.4 14.2-4.8 14.2-6.3 0-.4-8.8-.6-19.5-.3-23.5.6-36.1-.7-53.4-5.4-14.1-3.9-13.1-3.7-13.1-2.3"/></svg>